<?xml version="1.0" encoding="utf-8"?>
<!-- Generator: Adobe Illustrator 19.0.1, SVG Export Plug-In . SVG Version: 6.00 Build 0)  -->
<svg version="1.1" id="Layer_1" xmlns="http://www.w3.org/2000/svg" xmlns:xlink="http://www.w3.org/1999/xlink" x="0px" y="0px"
	 viewBox="-1412 1000.6 198.8 53.4" style="enable-background:new -1412 1000.6 198.8 53.4;" xml:space="preserve">
<style type="text/css">
	.st0{fill:#FFFFFF;}
</style>
<path class="st0" d="M-1229.6,1003.7l-4,25.9h-0.3l-10-25.9h-15.9l-5.1,28.7l-5-28.7h-17.1l-18.1,29.5l-5.2-29.5h-17.2l-21.2,34.5
	c-0.5,0.5-1.2,1-2.2,1.4s-2,0.7-3.2,0.7c-2.1,0-3.6-0.5-4.5-1.6c-1-1.1-1.4-2.4-1.4-3.8c0-2.2,0.7-4,2.1-5.5s3.3-2.3,5.7-2.3
	c1.2,0,2.2,0.2,3,0.6c0.8,0.4,2.2,1.7,2.5,2.1l7-11.4c-1.8-1.5-2.2-1.8-4.6-2.8c-2.4-1-5.1-1.2-7.9-1.2c-3.4,0-6.5,0.6-9.3,1.8
	c-2.8,1.2-5.2,2.9-7.2,4.9c-1.5,1.5-2.7,3.3-3.7,5.1c-1.1-1-2.3-1.9-3.8-2.7c-1.7-0.9-3.6-1.7-5.7-2.4c-1.7-0.6-3-1.1-3.9-1.6
	c-0.9-0.5-1.3-1.2-1.3-2.2c0-1.2,0.5-2,1.6-2.6c1.1-0.6,2.2-0.8,3.5-0.8c1.7,0,3.2,0.3,4.4,0.9c1.3,0.6,3.3,2.2,4.1,3.2l7.4-11.9
	c-0.7-0.7-1.3-1.2-1.8-1.6c-1.3-0.8-2.2-1.4-3.8-1.9c-1.5-0.5-3.2-1-4.9-1.3c-1.7-0.3-3.5-0.5-5.3-0.5c-3.2,0-6.2,0.5-8.9,1.4
	c-2.7,0.9-5,2.2-6.9,3.8c-2,1.6-3.5,3.6-4.6,5.8c-1.1,2.2-1.6,4.6-1.6,7.2c0,2.1,0.3,3.9,1,5.4c0.7,1.5,1.6,2.7,2.7,3.8
	c1.1,1.1,2.5,2,4.1,2.7c1.6,0.7,3.2,1.4,5,2c2.2,0.7,3.8,1.4,4.6,2c0.8,0.7,1.2,1.4,1.2,2.2c0,1-0.5,1.8-1.5,2.4
	c-1,0.5-2.3,0.8-3.9,0.8c-0.7,0-1.6-0.1-2.5-0.3c-0.9-0.2-1.8-0.5-2.6-0.8c-0.9-0.4-1.7-0.8-2.5-1.3c-0.8-0.5-1.5-1.1-2-1.8
	l-11.1,10.1c1.2,1.1,2.5,2.1,4.1,3c1.6,0.9,3.3,1.6,5.1,2.2c1.8,0.6,3.7,1.1,5.6,1.4c2,0.3,3.9,0.5,5.9,0.5c2.5,0,5-0.3,7.6-1
	c2.6-0.7,5-1.7,7.2-3.1c1.3-0.8,2.4-1.8,3.4-3c0.7,1,1.4,1.8,2.3,2.6c1.6,1.5,3.5,2.6,5.8,3.3c1.9,0.7,4,1,6.3,1.1l0,0h0.5
	c0.2,0,0.4,0,0.6,0s0.5,0,0.7,0h16.3l4.1-7.6h16.1l1.1,7.6h0.9h15.9h2.2l4.1-7.6h16.1l1.1,7.6h9.5h7.4h8.4l3.9-24.6h0.3l9.8,24.6
	h16.3l8.8-49.7h-15.6V1003.7z M-1329.5,1033.4l7-12.8l1.5,12.8H-1329.5z M-1289.1,1033.4l7.1-12.8l1.5,12.8H-1289.1z"/>
</svg>
