<?xml version="1.0" encoding="utf-8"?>
<!-- Generator: Adobe Illustrator 19.0.1, SVG Export Plug-In . SVG Version: 6.00 Build 0)  -->
<svg version="1.1" id="Layer_1" xmlns="http://www.w3.org/2000/svg" xmlns:xlink="http://www.w3.org/1999/xlink" x="0px" y="0px"
	 viewBox="0 0 198.8 53.4" style="enable-background:new 0 0 198.8 53.4;" xml:space="preserve">
<path d="M182.4,3.1L178.4,29h-0.3l-10-25.9h-15.9l-5.1,28.7l-5-28.7h-17.1l-18.1,29.5l-5.2-29.5H84.5L63.3,37.6
	c-0.5,0.5-1.2,1-2.2,1.4c-1,0.4-2,0.7-3.2,0.7c-2.1,0-3.6-0.5-4.5-1.6c-1-1.1-1.4-2.4-1.4-3.8c0-2.2,0.7-4,2.1-5.5
	c1.4-1.5,3.3-2.3,5.7-2.3c1.2,0,2.2,0.2,3,0.6c0.8,0.4,2.2,1.7,2.5,2.1l7-11.4c-1.8-1.5-2.2-1.8-4.6-2.8c-2.4-1-5.1-1.2-7.9-1.2
	c-3.4,0-6.5,0.6-9.3,1.8c-2.8,1.2-5.2,2.9-7.2,4.9c-1.5,1.5-2.7,3.3-3.7,5.1c-1.1-1-2.3-1.9-3.8-2.7c-1.7-0.9-3.6-1.7-5.7-2.4
	c-1.7-0.6-3-1.1-3.9-1.6c-0.9-0.5-1.3-1.2-1.3-2.2c0-1.2,0.5-2,1.6-2.6c1.1-0.6,2.2-0.8,3.5-0.8c1.7,0,3.2,0.3,4.4,0.9
	c1.3,0.6,3.3,2.2,4.1,3.2l7.4-11.9c-0.7-0.7-1.3-1.2-1.8-1.6c-1.3-0.8-2.2-1.4-3.8-1.9c-1.5-0.5-3.2-1-4.9-1.3
	c-1.7-0.3-3.5-0.5-5.3-0.5c-3.2,0-6.2,0.5-8.9,1.4c-2.7,0.9-5,2.2-6.9,3.8C12.3,7,10.8,9,9.7,11.2c-1.1,2.2-1.6,4.6-1.6,7.2
	c0,2.1,0.3,3.9,1,5.4c0.7,1.5,1.6,2.7,2.7,3.8c1.1,1.1,2.5,2,4.1,2.7c1.6,0.7,3.2,1.4,5,2c2.2,0.7,3.8,1.4,4.6,2
	c0.8,0.7,1.2,1.4,1.2,2.2c0,1-0.5,1.8-1.5,2.4c-1,0.5-2.3,0.8-3.9,0.8c-0.7,0-1.6-0.1-2.5-0.3c-0.9-0.2-1.8-0.5-2.6-0.8
	c-0.9-0.4-1.7-0.8-2.5-1.3c-0.8-0.5-1.5-1.1-2-1.8L0.6,45.6c1.2,1.1,2.5,2.1,4.1,3c1.6,0.9,3.3,1.6,5.1,2.2c1.8,0.6,3.7,1.1,5.6,1.4
	c2,0.3,3.9,0.5,5.9,0.5c2.5,0,5-0.3,7.6-1c2.6-0.7,5-1.7,7.2-3.1c1.3-0.8,2.4-1.8,3.4-3c0.7,1,1.4,1.8,2.3,2.6
	c1.6,1.5,3.5,2.6,5.8,3.3c1.9,0.7,4,1,6.3,1.1l0,0h0.5c0.2,0,0.4,0,0.6,0c0.2,0,0.5,0,0.7,0h16.3l4.1-7.6h16.1l1.1,7.6h0.9h15.9h2.2
	l4.1-7.6h16.1l1.1,7.6h9.5h7.4h8.4l3.9-24.6h0.3l9.8,24.6h16.3l8.8-49.7H182.4z M82.5,32.8L89.5,20L91,32.8H82.5z M122.9,32.8
	L130,20l1.5,12.8H122.9z"/>
</svg>
