<?xml version="1.0" standalone="no"?>
<!DOCTYPE svg PUBLIC "-//W3C//DTD SVG 20010904//EN"
 "http://www.w3.org/TR/2001/REC-SVG-20010904/DTD/svg10.dtd">
<svg version="1.0" xmlns="http://www.w3.org/2000/svg"
 width="995.000000pt" height="995.000000pt" viewBox="0 0 995.000000 995.000000"
 preserveAspectRatio="xMidYMid meet">
<metadata>
Created by potrace 1.11, written by Peter Selinger 2001-2013
</metadata>
<g transform="translate(0.000000,995.000000) scale(0.100000,-0.100000)"
fill="#000000" stroke="none">
<path d="M0 4975 l0 -4975 4975 0 4975 0 0 4975 0 4975 -4975 0 -4975 0 0
-4975z m3855 3115 c381 -38 809 -164 1135 -336 186 -98 548 -357 538 -385 -2
-4 -30 -37 -64 -71 -33 -35 -150 -157 -259 -273 -369 -389 -580 -610 -587
-613 -4 -2 -22 14 -40 35 -182 214 -496 389 -805 449 -113 23 -341 23 -473 1
-189 -32 -299 -86 -415 -202 -123 -123 -161 -223 -153 -400 11 -208 97 -325
328 -444 128 -66 205 -96 545 -211 335 -113 623 -217 745 -267 292 -120 602
-328 755 -507 l48 -57 38 98 c165 437 431 772 814 1026 209 139 540 274 810
331 216 45 384 59 635 53 246 -7 337 -19 600 -82 163 -38 428 -137 514 -191
167 -104 260 -169 319 -225 68 -63 68 -64 50 -84 -37 -41 -150 -171 -178 -206
-17 -20 -159 -184 -317 -366 l-287 -330 -68 66 c-151 147 -341 234 -571 261
-431 52 -833 -221 -990 -671 -86 -245 -84 -566 3 -809 158 -437 559 -690 1013
-640 241 26 447 112 584 243 59 56 62 57 78 40 13 -14 237 -286 357 -433 20
-25 307 -375 320 -390 7 -8 27 -32 45 -54 l32 -38 -34 -31 c-19 -16 -52 -44
-72 -62 -21 -18 -41 -35 -45 -37 -5 -1 -42 -25 -83 -52 -41 -27 -93 -60 -115
-74 -22 -15 -44 -27 -50 -28 -5 -2 -55 -23 -110 -47 -187 -83 -432 -151 -680
-189 -141 -21 -629 -18 -775 5 -550 86 -975 287 -1308 617 -132 131 -234 263
-339 438 l-20 34 -43 -79 c-112 -204 -280 -409 -449 -545 -308 -249 -691 -405
-1176 -480 -170 -26 -540 -35 -737 -19 -730 62 -1412 342 -1846 757 l-92 89
472 478 473 479 95 -97 c206 -210 465 -369 745 -458 166 -52 278 -70 445 -70
308 -1 542 77 675 225 62 69 120 189 135 279 17 101 8 249 -19 321 -52 135
-188 262 -390 366 -143 74 -226 105 -662 248 -497 164 -764 277 -961 408 -370
246 -590 562 -680 976 -20 95 -22 132 -23 375 0 243 3 281 23 380 66 316 202
575 425 811 160 169 327 289 562 404 271 133 472 188 945 258 88 13 495 14
615 2z"/>
</g>
</svg>
