<?xml version="1.0" encoding="utf-8"?>
<!-- Generator: Adobe Illustrator 19.0.1, SVG Export Plug-In . SVG Version: 6.00 Build 0)  -->
<svg version="1.1" id="Layer_1" xmlns="http://www.w3.org/2000/svg" xmlns:xlink="http://www.w3.org/1999/xlink" x="0px" y="0px"
	 viewBox="0 0 114.5 32.8" style="enable-background:new 0 0 114.5 32.8;" xml:space="preserve">
<style type="text/css">
	.st0{fill:#FFFFFF;}
</style>
<path class="st0" d="M105.8,2.1l0.2,18.5h-0.1L94.5,2.1h-7.8v22.7L77.2,2.1h-6.6L61,24.9L51.6,2.1H45l-9.2,22
	c-0.4,0.4-0.9,0.8-1.5,1c-0.7,0.3-1.3,0.4-2,0.4c-0.7,0-1.4-0.1-1.9-0.4c-0.6-0.3-1.1-0.6-1.5-1.1c-0.4-0.5-0.7-1-0.9-1.6
	c-0.2-0.6-0.3-1.3-0.3-2c0-0.7,0.1-1.3,0.3-2c0.2-0.6,0.5-1.2,0.9-1.6c0.4-0.5,0.9-0.8,1.4-1.1c0.6-0.3,1.6-0.5,2.3-0.5
	c0.5,0,1.4,0.2,1.8,0.5c0.9,0.5,1.4,1.1,1.7,1.4l2.5-5.1c-0.4-0.4-1.7-1.1-2.3-1.4c-0.7-0.2-1.3-0.4-2-0.5C33.5,10,32.8,9.9,32,9.9
	c-1.5,0-3,0.2-4.4,0.7c-1.4,0.5-2.5,1.2-3.6,2.1c-1,0.9-1.8,2-2.4,3.3c-0.2,0.5-0.4,1-0.5,1.5c-0.5-0.7-1-1.2-1.7-1.7
	c-0.9-0.6-1.8-1.2-2.8-1.5c-1-0.4-2-0.7-3-1.1c-0.7-0.2-1.3-0.4-1.8-0.6c-0.5-0.2-1-0.4-1.4-0.7c-0.4-0.2-0.7-0.5-0.9-0.8
	c-0.2-0.3-0.3-0.7-0.3-1.2c0-0.6,0.1-1,0.4-1.4c0.3-0.4,0.6-0.7,0.9-0.9c0.4-0.2,0.8-0.4,1.3-0.5c0.5-0.1,0.9-0.1,1.4-0.1
	c0.9,0,1.8,0.2,2.7,0.7c0.9,0.4,1.7,1,2.3,1.8l4.4-4.6c-1.3-1.1-2.7-2-4.4-2.6c-1.7-0.6-3.3-0.9-4.9-0.9c-1.3,0-2.7,0.2-4,0.5
	C8.2,2.3,7,2.8,6,3.5c-1,0.7-1.9,1.6-2.5,2.8c-0.6,1.1-1,2.5-1,4c0,1.3,0.2,2.4,0.6,3.3c0.4,0.9,1,1.7,1.6,2.3
	c0.7,0.6,1.5,1.1,2.3,1.5c0.9,0.4,1.8,0.7,2.7,1c0.9,0.3,1.8,0.6,2.5,0.8c0.7,0.3,1.3,0.5,1.8,0.8c0.5,0.3,0.9,0.6,1.1,1
	c0.3,0.4,0.4,0.8,0.4,1.4c0,0.6-0.1,1-0.3,1.4c-0.2,0.4-0.5,0.7-0.9,1c-0.4,0.2-0.8,0.4-1.3,0.5c-0.5,0.1-1,0.2-1.5,0.2
	c-1.1,0-2.2-0.3-3.4-0.9c-1.1-0.6-2-1.3-2.7-2.1l-4.5,4.6c1.3,1.3,2.8,2.3,4.7,3c1.9,0.7,3.9,1.1,5.9,1.1c1.4,0,2.7-0.2,4-0.6
	c1.3-0.4,2.5-0.9,3.5-1.7c1-0.8,1.8-1.8,2.4-2.9c0.1-0.2,0.2-0.5,0.3-0.7c0.6,1.2,1.3,2.2,2.2,3c1,0.9,2.2,1.6,3.6,2.1
	c1.4,0.5,2.8,0.7,4.4,0.7c1.4,0,2.8-0.2,4-0.6h4.4l2.1-5.6h11l2.2,5.6h2.9l0,0h7.4l2.1-5.6h11l2.2,5.6h5.3H89h4.3l-0.2-18.5h0.1
	l11.4,18.5h7.8V2.1H105.8z M44.6,19.4l3.6-9.7l3.5,9.7H44.6z M70.2,19.4l3.6-9.7l3.5,9.7H70.2z"/>
</svg>
