<?xml version="1.0" encoding="utf-8"?>
<!-- Generator: Adobe Illustrator 19.0.1, SVG Export Plug-In . SVG Version: 6.00 Build 0)  -->
<svg version="1.1" id="Layer_1" xmlns="http://www.w3.org/2000/svg" xmlns:xlink="http://www.w3.org/1999/xlink" x="0px" y="0px"
	 viewBox="0 0 68.7 67.5" style="enable-background:new 0 0 68.7 67.5;" xml:space="preserve">
<style type="text/css">
	.st0{fill:#4BAA47;}
	.st1{fill:#0F6BB5;}
</style>
<path class="st0" d="M65.6,61.2l-1.1-0.6c-1-0.6-1.4-1-1.4-1.6c0-0.7,0.6-1.1,1.6-1.1c0.8,0,1.6,0.3,2.3,1v-1.6
	c-0.7-0.5-1.4-0.7-2.2-0.7c-1.7,0-2.9,1.1-2.9,2.6c0,1,0.5,1.8,1.8,2.5l1.1,0.6c0.8,0.5,1.3,1.1,1.3,1.7c0,0.7-0.7,1.3-1.5,1.3
	c-0.6,0-1.3-0.2-1.8-0.6c-0.3-0.2-0.5-0.4-0.8-0.8v1.8c0.8,0.6,1.7,0.9,2.6,0.9c1.7,0,2.8-1.1,2.8-2.6
	C67.3,62.8,66.7,61.9,65.6,61.2 M60.7,56.7h-1.7l-4.1,4.4v-4.4h-1.4v9.7h1.4v-4.8l5,4.8h1.9l-5.3-5.1L60.7,56.7z M48.2,60.9
	c-0.3,0-0.6,0.1-1,0.1h-0.5v-3.1h0.4c0.9,0,1.3,0.1,1.7,0.2c0.4,0.2,0.7,0.7,0.7,1.3C49.5,60.2,49,60.8,48.2,60.9 M52.3,65.8
	c-0.2-0.3-0.5-0.7-0.8-1.2c-0.7-1.1-0.9-1.4-1.3-1.9c-0.3-0.4-0.5-0.5-0.8-0.8c1.1-0.4,1.6-1.3,1.6-2.4c0-1.7-1.2-2.7-3.2-2.7h-2.4
	v9.7h1.4v-4.2H47c0.6,0,0.8,0,1.2,0.3c0.4,0.3,0.8,0.7,1.2,1.4c0.2,0.3,0.6,0.9,0.9,1.4c0.2,0.2,0.3,0.4,0.3,0.5l0.3,0.5l0.1,0.1
	h1.7l-0.1-0.1L52.3,65.8z M38.2,62.3l1.5-3.5l1.6,3.5H38.2z M39.2,56.7L35,66.5h1.4l1.2-2.9h4.1l1.3,2.9h1.4l-4.3-9.8H39.2z
	 M33.1,61h-1.5v-3H33c1.3,0,1.9,0.5,1.9,1.5C34.9,60.4,34.3,61,33.1,61 M36.3,59.5c0-1.7-1.2-2.7-3-2.7h-3.1v9.7h1.4v-4.2h1
	c0.9,0,1.2,0,1.8-0.2C35.6,61.8,36.3,60.8,36.3,59.5 M22.5,60.9c-0.3,0-0.6,0.1-1,0.1H21v-3.1h0.4c0.9,0,1.3,0.1,1.7,0.2
	c0.4,0.2,0.7,0.7,0.7,1.3C23.8,60.2,23.3,60.8,22.5,60.9 M26.6,65.8c-0.2-0.3-0.5-0.7-0.8-1.2c-0.7-1.1-0.9-1.4-1.3-1.9
	c-0.3-0.4-0.5-0.5-0.8-0.8c1.1-0.4,1.6-1.3,1.6-2.4c0-1.7-1.2-2.7-3.2-2.7h-2.4v9.7H21v-4.2h0.4c0.6,0,0.8,0,1.2,0.3
	c0.4,0.3,0.8,0.7,1.2,1.4c0.2,0.3,0.6,0.9,0.9,1.4c0.2,0.2,0.3,0.4,0.3,0.5l0.3,0.5l0.1,0.1h1.7L27,66.3L26.6,65.8z M13.3,65.3
	c-2.2,0-3.8-1.6-3.8-3.7c0-2.2,1.6-3.7,3.8-3.7c2.1,0,3.8,1.6,3.8,3.6C17.1,63.7,15.5,65.3,13.3,65.3 M13.3,56.6c-3,0-5.2,2.1-5.2,5
	c0,2.8,2.2,5,5.1,5c3.1,0,5.3-2.1,5.3-5C18.5,58.7,16.3,56.6,13.3,56.6 M2.1,66.5h1.4v-4.5h3.8v-1.3H3.5V58h3.8v-1.3H2.1V66.5z
	 M64.6,52l0.8,0.5c0.6,0.3,0.9,0.8,0.9,1.2c0,0.5-0.5,0.9-1.1,0.9c-0.4,0-0.9-0.2-1.3-0.4c-0.2-0.2-0.3-0.3-0.6-0.6v1.3
	c0.6,0.4,1.2,0.6,1.9,0.6c1.2,0,2-0.8,2-1.9c0-0.8-0.4-1.4-1.3-1.9l-0.8-0.4c-0.7-0.4-1-0.8-1-1.2c0-0.5,0.5-0.8,1.1-0.8
	c0.6,0,1.1,0.2,1.6,0.7v-1.1c-0.5-0.3-1-0.5-1.6-0.5c-1.2,0-2.1,0.8-2.1,1.9C63.3,50.9,63.6,51.4,64.6,52 M59.7,51.4
	c-0.2,0-0.4,0-0.7,0h-0.4v-2.2h0.3c0.6,0,0.9,0,1.2,0.2c0.3,0.2,0.5,0.5,0.5,0.9C60.7,50.9,60.3,51.3,59.7,51.4 M63,55.4L63,55.4
	l-0.4-0.5c-0.2-0.2-0.4-0.5-0.6-0.9c-0.5-0.8-0.6-1-1-1.4c-0.2-0.3-0.3-0.4-0.6-0.5c0.8-0.3,1.2-0.9,1.2-1.7c0-1.2-0.9-2-2.3-2h-1.8
	v7h1v-3.1h0.3c0.5,0,0.6,0,0.8,0.2c0.3,0.2,0.5,0.5,0.9,1c0.1,0.2,0.4,0.6,0.7,1c0.1,0.2,0.2,0.3,0.2,0.4l0.2,0.4l0.1,0.1H63z
	 M56.7,54.5h-3.1v-2.2h2.9v-0.9h-2.9v-2.1h3v-0.9h-4v7h4.1V54.5z M47.2,51.9l3.6,3.5h1.4l-3.8-3.7l3-3.3h-1.3l-2.9,3.2v-3.2h-1v7h1
	V51.9z M41.2,49.2h0.3c0.6,0,0.9,0,1.2,0.2c0.3,0.2,0.5,0.5,0.5,0.9c0,0.6-0.4,1-0.9,1.1c-0.2,0-0.4,0-0.7,0h-0.4V49.2z M41.2,52.3
	h0.3c0.5,0,0.6,0,0.8,0.2c0.3,0.2,0.5,0.5,0.9,1c0.1,0.2,0.4,0.6,0.7,1c0.1,0.2,0.2,0.3,0.2,0.4l0.2,0.4l0.1,0.1h1.2l-0.1-0.1
	l-0.3-0.4c-0.2-0.2-0.3-0.5-0.6-0.9c-0.5-0.8-0.6-1-1-1.4c-0.2-0.3-0.3-0.4-0.6-0.5c0.8-0.3,1.2-0.9,1.2-1.7c0-1.2-0.9-2-2.3-2h-1.8
	v7h1V52.3z M35.6,49.2c1.5,0,2.7,1.1,2.7,2.6c0,1.5-1.2,2.7-2.7,2.7c-1.6,0-2.7-1.1-2.7-2.6C32.9,50.3,34,49.2,35.6,49.2 M35.5,55.5
	c2.2,0,3.8-1.5,3.8-3.6c0-2.1-1.6-3.6-3.8-3.6c-2.2,0-3.8,1.5-3.8,3.6C31.8,53.9,33.4,55.5,35.5,55.5 M31.3,48.4l-1.9,2.4l-1.9-2.4
	h-1.2l2.6,3.3v3.7h1v-3.7l2.6-3.3H31.3z M21.9,55.4l2.8-7h-1l-1.9,4.8l-2-4.8h-1L17,53.2L15,48.4h-1l2.8,7h0.2l2.3-5.7l2.3,5.7H21.9
	z M13.6,54.5h-3.1v-2.2h2.9v-0.9h-2.9v-2.1h3v-0.9h-4v7h4.1V54.5z M8.6,48.4h-1v5.4l-4.7-5.4H2.1v7H3V50l4.7,5.4h0.9V48.4z"/>
<path class="st1" d="M35.4,35h20.3l-0.1-4.4H35.4V35z M35.4,29.3h20.2l0-1.6H35.4V29.3z M35.4,25.3v1.2h20.1l0-1.2H35.4z M13.4,26.5
	h20.3v-1.2H13.4L13.4,26.5z M13.4,29.3h20.4v-1.6H13.4L13.4,29.3z M13.2,35h20.5v-4.4H13.3L13.2,35z M2.1,1.6v44.1h7.7v-5.9
	c-0.3,0-0.4-0.2-0.4-0.2s-0.1,0-0.1-1.8H5.6v-1.6h0.3v-0.7h0.2V35h4.1l0.1-0.1l0.2-4.3H6.2v0c0-0.4,0-0.8,0.1-1.2h4.3l0.1-1.6H6.4
	c0-0.4,0.1-0.8,0.1-1.2h4.2l0.1-1.2h-4c0.1-0.4,0.1-0.8,0.2-1.2h3.9v0c0,0,0-0.1,0-0.3l0-0.1c0,0,0-0.1,0-0.1c0-0.3,0.1-0.6,0.2-0.8
	h2.5c0,0,0.7,0.6,0,1.3h20.3v-0.9c0-0.2,0.2-0.4,0.4-0.4h1c0.2,0,0.4,0.2,0.4,0.4v0.9h20c-0.8-0.7,0-1.3,0-1.3H58
	c0.1,0.2,0.1,0.5,0.2,0.8c0,0,0,0.1,0,0.1l0,0.1c0,0.2,0,0.3,0,0.3v0h3.6c0.1,0.4,0.1,0.8,0.2,1.2h-3.7l0.1,1.2h3.8
	c0,0.4,0.1,0.8,0.1,1.2h-3.8l0.1,1.6h3.8c0,0.4,0,0.8,0,1.2v0h-3.7l0.2,4.3l0.1,0.1h4.3v0.3h0.2v0.7h0.3v1.6h-3.8
	c0,1.8-0.1,1.8-0.1,1.8h0c0,0-0.2,0.2-0.4,0.2v5.9h7.8V1.6H2.1z M13.1,45.7h20.7v-8H13.2L13.1,45.7z M35.4,37.7v8h20.5l-0.1-8H35.4z
	"/>
</svg>
